# xmcd
#
# Track frame offsets:
#	150
#	10337
#	22557
#	29944
#	42853
#	55551
#	69250
#	79073
#	90499
#	100423
#	110253
#	121306
#	131152
#	141274
#	152415
#
# Disc length: 2172 seconds
#
# Revision: 0
# Processed by: cddbd v1.5.2PL0 Copyright (c) Steve Scherf et al.
# Submitted via: dBpowerAMP V4.0
#
DISCID=b7087a0f
DTITLE=George Jones - Early Hits: The Starday Recordings (Time Life)
DYEAR=2007
DGENRE=Country
TTITLE0=Why Baby Why
TTITLE1=Just One More
TTITLE2=Nothing Can Stop My Love
TTITLE3=Color Of The Blues
TTITLE4=What Am I Worth
TTITLE5=Life To Go
TTITLE6=Yes I Know Why
TTITLE7=One Is A Lonely Number
TTITLE8=Run Boy
TTITLE9=Frozen Heart
TTITLE10=Tall, Tall Trees
TTITLE11=Rain Rain
TTITLE12=Don't Stop The Music
TTITLE13=You're In My Heart
TTITLE14=For Sale Or For Lease (Bonus Track)
EXTD=
EXTT0=
EXTT1=
EXTT2=
EXTT3=
EXTT4=
EXTT5=
EXTT6=
EXTT7=
EXTT8=
EXTT9=
EXTT10=
EXTT11=
EXTT12=
EXTT13=
EXTT14=
PLAYORDER=
